%TF.GenerationSoftware,KiCad,Pcbnew,(5.1.6)-1*%
%TF.CreationDate,2020-06-22T11:03:23-07:00*%
%TF.ProjectId,FP_MGB_IPS_Bracket,46505f4d-4742-45f4-9950-535f42726163,rev?*%
%TF.SameCoordinates,Original*%
%TF.FileFunction,Profile,NP*%
%FSLAX46Y46*%
G04 Gerber Fmt 4.6, Leading zero omitted, Abs format (unit mm)*
G04 Created by KiCad (PCBNEW (5.1.6)-1) date 2020-06-22 11:03:23*
%MOMM*%
%LPD*%
G01*
G04 APERTURE LIST*
%TA.AperFunction,Profile*%
%ADD10C,0.050000*%
%TD*%
G04 APERTURE END LIST*
D10*
X3250000Y-48000000D02*
G75*
G02*
X1250000Y-50000000I-2000000J0D01*
G01*
X-3000000Y-4500001D02*
X-3000000Y3750000D01*
X-3000000Y-4500001D02*
G75*
G02*
X-2999999Y-9999999I1500000J-2749999D01*
G01*
X-3000000Y-50000000D02*
X-2999999Y-9999999D01*
X1250000Y-50000000D02*
X-3000000Y-50000000D01*
X3250000Y-45500000D02*
X3250000Y-48000000D01*
X4250000Y-45500000D02*
X3250000Y-45500000D01*
X4250000Y-40000000D02*
X4250000Y-45500000D01*
X3500000Y-40000000D02*
X4250000Y-40000000D01*
X3500000Y-39500000D02*
X3500000Y-40000000D01*
X3000000Y-39500000D02*
X3500000Y-39500000D01*
X3000000Y-23250000D02*
X3000000Y-39500000D01*
X3500000Y-23250000D02*
X3000000Y-23250000D01*
X3500000Y-2750000D02*
X3500000Y-23250000D01*
X4500000Y-2750000D02*
X3500000Y-2750000D01*
X3500000Y3750000D02*
X-3000000Y3750000D01*
X3500000Y3000000D02*
X3500000Y3750000D01*
X4500000Y3000000D02*
X3500000Y3000000D01*
X4500000Y3000000D02*
X4500000Y-2750000D01*
X2100000Y-42750000D02*
G75*
G03*
X2100000Y-42750000I-2100000J0D01*
G01*
X2100000Y0D02*
G75*
G03*
X2100000Y0I-2100000J0D01*
G01*
M02*
