%TF.GenerationSoftware,KiCad,Pcbnew,(5.1.6)-1*%
%TF.CreationDate,2020-06-22T11:03:23-07:00*%
%TF.ProjectId,FP_MGB_IPS_Bracket,46505f4d-4742-45f4-9950-535f42726163,rev?*%
%TF.SameCoordinates,Original*%
%TF.FileFunction,Copper,L1,Top*%
%TF.FilePolarity,Positive*%
%FSLAX46Y46*%
G04 Gerber Fmt 4.6, Leading zero omitted, Abs format (unit mm)*
G04 Created by KiCad (PCBNEW (5.1.6)-1) date 2020-06-22 11:03:23*
%MOMM*%
%LPD*%
G01*
G04 APERTURE LIST*
%TA.AperFunction,EtchedComponent*%
%ADD10C,0.300000*%
%TD*%
G04 APERTURE END LIST*
D10*
%TO.C,REF\u002A\u002A*%
X500000Y-23480000D02*
X-750000Y-24230000D01*
X1250000Y-23980000D02*
X500000Y-23480000D01*
X1750000Y-24980000D02*
X1250000Y-23980000D01*
X750000Y-25730000D02*
X1750000Y-24980000D01*
X-500000Y-25480000D02*
X750000Y-25730000D01*
X-750000Y-24230000D02*
X-500000Y-25480000D01*
X-250000Y-26230000D02*
X1250000Y-25980000D01*
X-500000Y-26980000D02*
X-250000Y-26230000D01*
X0Y-27730000D02*
X-500000Y-26980000D01*
X-1750000Y-27730000D02*
X1500000Y-27730000D01*
X0Y-29980000D02*
X1000000Y-28480000D01*
X-1000000Y-28730000D02*
X0Y-29980000D01*
X-2000000Y-29980000D02*
X1250000Y-29980000D01*
X-500000Y-31480000D02*
X1250000Y-30980000D01*
X1000000Y-31730000D02*
X-500000Y-31480000D01*
X1000000Y-32980000D02*
X1000000Y-31730000D01*
X0Y-33480000D02*
X1000000Y-32980000D01*
X-750000Y-33230000D02*
X0Y-33480000D01*
X-1000000Y-32480000D02*
X-750000Y-33230000D01*
X-500000Y-31980000D02*
X-1000000Y-32480000D01*
X-1750000Y-34230000D02*
X1000000Y-34230000D01*
X-1000000Y-35730000D02*
X-1750000Y-35230000D01*
X-1500000Y-36480000D02*
X-1000000Y-35730000D01*
X-1000000Y-36980000D02*
X-1500000Y-36480000D01*
X1250000Y-36980000D02*
X-1000000Y-36980000D01*
X-1750000Y-35230000D02*
X-1750000Y-34230000D01*
%TD*%
M02*
