%TF.GenerationSoftware,KiCad,Pcbnew,(5.1.6)-1*%
%TF.CreationDate,2020-06-21T21:40:31-07:00*%
%TF.ProjectId,FP_DMMG_IPS_Bracket,46505f44-4d4d-4475-9f49-50535f427261,rev?*%
%TF.SameCoordinates,Original*%
%TF.FileFunction,Profile,NP*%
%FSLAX46Y46*%
G04 Gerber Fmt 4.6, Leading zero omitted, Abs format (unit mm)*
G04 Created by KiCad (PCBNEW (5.1.6)-1) date 2020-06-21 21:40:31*
%MOMM*%
%LPD*%
G01*
G04 APERTURE LIST*
%TA.AperFunction,Profile*%
%ADD10C,0.050000*%
%TD*%
G04 APERTURE END LIST*
D10*
X59000000Y0D02*
X59000000Y-1000000D01*
X15600000Y-4250000D02*
G75*
G03*
X15600000Y-4250000I-2100000J0D01*
G01*
X53500000Y0D02*
X59000000Y0D01*
X10500000Y-750000D02*
X9750000Y-750000D01*
X53000000Y-1250000D02*
X53000000Y-750000D01*
X9750000Y-750000D02*
X9750000Y-7250000D01*
X36750000Y-750000D02*
X36750000Y-1250000D01*
X53000000Y-750000D02*
X53500000Y-750000D01*
X58350000Y-4250000D02*
G75*
G03*
X58350000Y-4250000I-2100000J0D01*
G01*
X16250000Y250000D02*
X16250000Y-750000D01*
X59000000Y-1000000D02*
X61500000Y-1000000D01*
X53500000Y-750000D02*
X53500000Y0D01*
X63500000Y-7250000D02*
X23499999Y-7249999D01*
X36750000Y-1250000D02*
X53000000Y-1250000D01*
X16250000Y-750000D02*
X36750000Y-750000D01*
X10500000Y250000D02*
X16250000Y250000D01*
X63500000Y-3000000D02*
X63500000Y-7250000D01*
X10500000Y250000D02*
X10500000Y-750000D01*
X18000001Y-7250000D02*
G75*
G02*
X23499999Y-7249999I2749999J1500000D01*
G01*
X18000001Y-7250000D02*
X9750000Y-7250000D01*
X61500000Y-1000000D02*
G75*
G02*
X63500000Y-3000000I0J-2000000D01*
G01*
X77000000Y4000000D02*
G75*
G02*
X79000000Y2000000I0J-2000000D01*
G01*
X-5000000Y2000000D02*
G75*
G02*
X-3000000Y4000000I2000000J0D01*
G01*
X7000000Y-9000000D02*
G75*
G02*
X6000000Y-8000000I-1000000J0D01*
G01*
X65750000Y-8000000D02*
G75*
G02*
X64750000Y-9000000I0J-1000000D01*
G01*
X6750000Y-17000000D02*
G75*
G02*
X-5000000Y-5250000I0J11750000D01*
G01*
X79000000Y-5250000D02*
G75*
G02*
X67250000Y-17000000I-11750000J0D01*
G01*
X6000000Y4000000D02*
X-3000000Y4000000D01*
X65750000Y4000000D02*
X77000000Y4000000D01*
X7000000Y-9000000D02*
X64750000Y-9000000D01*
X6000000Y4000000D02*
X6000000Y-8000000D01*
X65750000Y4000000D02*
X65750000Y-8000000D01*
X67250000Y-17000000D02*
X6750000Y-17000000D01*
X79000000Y2000000D02*
X79000000Y-5250000D01*
X-5000000Y2000000D02*
X-5000000Y-5250000D01*
X76100000Y0D02*
G75*
G03*
X76100000Y0I-2100000J0D01*
G01*
X2100000Y0D02*
G75*
G03*
X2100000Y0I-2100000J0D01*
G01*
M02*
