%TF.GenerationSoftware,KiCad,Pcbnew,(5.1.6)-1*%
%TF.CreationDate,2020-06-21T21:40:31-07:00*%
%TF.ProjectId,FP_DMMG_IPS_Bracket,46505f44-4d4d-4475-9f49-50535f427261,rev?*%
%TF.SameCoordinates,Original*%
%TF.FileFunction,Copper,L1,Top*%
%TF.FilePolarity,Positive*%
%FSLAX46Y46*%
G04 Gerber Fmt 4.6, Leading zero omitted, Abs format (unit mm)*
G04 Created by KiCad (PCBNEW (5.1.6)-1) date 2020-06-21 21:40:31*
%MOMM*%
%LPD*%
G01*
G04 APERTURE LIST*
%TA.AperFunction,EtchedComponent*%
%ADD10C,0.300000*%
%TD*%
G04 APERTURE END LIST*
D10*
%TO.C,REF\u002A\u002A*%
X23000000Y-11750000D02*
X24000000Y-11750000D01*
X21250000Y-14750000D02*
X21250000Y-12500000D01*
X21250000Y-12500000D02*
X21750000Y-12000000D01*
X21750000Y-12000000D02*
X22500000Y-12500000D01*
X22500000Y-12500000D02*
X23000000Y-11750000D01*
X24000000Y-11750000D02*
X24000000Y-14500000D01*
X26250000Y-13000000D02*
X25750000Y-12500000D01*
X25750000Y-12500000D02*
X25000000Y-12750000D01*
X25000000Y-12750000D02*
X24750000Y-13500000D01*
X24750000Y-13500000D02*
X25250000Y-14500000D01*
X25250000Y-14500000D02*
X26500000Y-14500000D01*
X26500000Y-14500000D02*
X26750000Y-13000000D01*
X26750000Y-13000000D02*
X27250000Y-14750000D01*
X28250000Y-11500000D02*
X28250000Y-14750000D01*
X29500000Y-12500000D02*
X28250000Y-13500000D01*
X28250000Y-13500000D02*
X29750000Y-14500000D01*
X30500000Y-11750000D02*
X30500000Y-15000000D01*
X30500000Y-13500000D02*
X31250000Y-13000000D01*
X31250000Y-13000000D02*
X32000000Y-13250000D01*
X32000000Y-13250000D02*
X32250000Y-14750000D01*
X34000000Y-12750000D02*
X32750000Y-13000000D01*
X32750000Y-13000000D02*
X32500000Y-14250000D01*
X32500000Y-14250000D02*
X33250000Y-15250000D01*
X33250000Y-15250000D02*
X34250000Y-14750000D01*
X34250000Y-14750000D02*
X34750000Y-14000000D01*
X34750000Y-14000000D02*
X34000000Y-12750000D01*
%TD*%
M02*
